<svg xmlns="http://www.w3.org/2000/svg" viewBox="0 0 96 96" width="96" height="96" role="img" aria-label="P-Rideon mark">
  <g transform="rotate(45 48 48)">
    <rect x="16" y="16" width="64" height="64" fill="none" stroke="rgba(0,0,0,0.09)" stroke-width="1"></rect>
    <rect x="22" y="22" width="52" height="52" fill="none" stroke="#B29A63" stroke-width="1"></rect>
  </g>
  <path fill="#B29A63" opacity="0.5" d="M48.32 52.98L48.32 56.27Q48.32 57.52 48.36 58.45Q48.40 59.38 48.45 60.05Q48.50 60.73 48.58 61.18Q48.66 61.63 48.75 61.94L48.75 62L45.23 62L45.23 61.94Q45.32 61.63 45.40 61.18Q45.48 60.73 45.53 60.05Q45.58 59.38 45.62 58.46Q45.66 57.53 45.66 56.27L45.66 46.74Q45.66 45.49 45.62 44.56Q45.58 43.63 45.53 42.96Q45.48 42.28 45.40 41.82Q45.32 41.36 45.23 41.05L45.23 40.99L45.85 41.05Q46.13 41.08 46.47 41.09Q46.81 41.10 47.18 41.10Q47.75 41.10 48.73 40.96Q49.70 40.82 51.21 40.82Q52.62 40.82 53.81 41.20Q55 41.58 55.88 42.31Q56.76 43.04 57.25 44.11Q57.74 45.17 57.74 46.52Q57.74 47.57 57.47 48.47Q57.20 49.37 56.71 50.11Q56.22 50.84 55.53 51.40Q54.84 51.97 53.99 52.35L59.13 59.57Q59.51 60.11 59.84 60.51Q60.17 60.90 60.47 61.19Q60.77 61.47 61.05 61.66Q61.33 61.84 61.62 61.94L61.62 62L57.39 62Q57.35 61.72 57.10 61.26Q56.86 60.80 56.54 60.34L51.36 53.04Q51.02 53.06 50.68 53.09Q50.34 53.11 49.99 53.11Q49.58 53.11 49.17 53.08Q48.75 53.05 48.32 52.98M48.32 42.14L48.32 51.83Q48.72 51.92 49.13 51.96Q49.54 52 49.92 52Q51.02 52 51.93 51.67Q52.83 51.34 53.47 50.66Q54.11 49.99 54.46 48.98Q54.81 47.98 54.81 46.63Q54.81 45.54 54.56 44.64Q54.31 43.75 53.82 43.13Q53.33 42.50 52.59 42.16Q51.84 41.81 50.84 41.81Q49.83 41.81 49.23 41.92Q48.63 42.02 48.32 42.14"></path>
  <path fill="#22332D" d="M45.84 39.79L45.84 48.94Q47.08 49.17 48.11 48.98Q49.15 48.80 49.89 48.20Q50.63 47.59 51.05 46.56Q51.46 45.54 51.46 44.05Q51.46 43.02 51.24 42.18Q51.03 41.33 50.60 40.74Q50.18 40.15 49.53 39.83Q48.88 39.51 48.02 39.51Q47.47 39.51 47.07 39.55Q46.66 39.59 46.38 39.65Q46.05 39.71 45.84 39.79M43.16 38.85L43.16 38.79Q43.41 38.82 43.69 38.85Q43.93 38.87 44.23 38.88Q44.53 38.88 44.85 38.88Q45.34 38.88 46.18 38.76Q47.03 38.64 48.34 38.64Q49.56 38.64 50.59 39Q51.62 39.35 52.39 40.04Q53.15 40.72 53.57 41.71Q54 42.69 54 43.95Q54 45.64 53.33 46.87Q52.65 48.10 51.52 48.86Q50.39 49.62 48.92 49.90Q47.45 50.17 45.84 49.93L45.84 52.04Q45.84 53.12 45.87 53.92Q45.90 54.73 45.94 55.31Q45.99 55.90 46.06 56.29Q46.13 56.68 46.20 56.95L46.20 57L43.16 57L43.16 56.95Q43.23 56.68 43.30 56.29Q43.37 55.90 43.42 55.31Q43.47 54.73 43.50 53.92Q43.52 53.12 43.52 52.04L43.52 43.77Q43.52 42.69 43.50 41.89Q43.47 41.08 43.42 40.49Q43.37 39.90 43.30 39.51Q43.23 39.11 43.16 38.85"></path>
</svg>